# xmcd CD database file
#
# Track frame offsets:
#	150
#	19922
#	37605
#	56957
#	80480
#	108332
#	127085
#	153790
#	182017
#
# Disc length: 2765 seconds
#
# Revision: 6
# Processed by: cddbd v1.5.2PL0 Copyright (c) Steve Scherf et al.
# Submitted via: CDex 1.70beta2
#
DISCID=6b0acb09
DTITLE=寺井尚子 - All For You
DYEAR=2001
DGENRE=Jazz
TTITLE0=おいしい水 Agua de Beber
TTITLE1=ビ・バップ Be Bop
TTITLE2=あなたがわたしをさがすとき Anata Ga Watashi Wo Sagasu Toki
TTITLE3=リベルタンゴ Libertango
TTITLE4=オール・フォー・ユー  All For You
TTITLE5=マルゴーのワルツ La Valse a Margaux
TTITLE6=月の光  Clair de Lune
TTITLE7=シロッコ  Scirocco
TTITLE8=ひまわり  I Girasoli
EXTD=YEAR: 2001
EXTT0=Antonio Carlos Jobim
EXTT1=Dizzy Gillespie
EXTT2=Naoko Terai
EXTT3=Astor Piazzolla
EXTT4=Naoko Terai
EXTT5=Richard Galliano
EXTT6=Claude Debussy
EXTT7=Hiroki Miyano
EXTT8=Henry Mancini
PLAYORDER=
